<svg version="1.1" xmlns="http://www.w3.org/2000/svg" viewBox="0 0 1000 1000">
	<g><path d="M663.3,826.7c-16.3,0-27.2-5.4-38.1-16.3c-21.8-21.8-21.8-54.4,0-76.2l272.2-272.2c21.8-21.8,54.4-21.8,76.2,0c21.8,21.8,21.8,54.4,0,76.2L701.4,810.3C690.6,821.2,679.7,826.7,663.3,826.7z"/><path d="M935.6,554.4c-16.3,0-27.2-5.4-38.1-16.3L625.2,265.9c-21.8-21.8-21.8-54.4,0-76.2c21.8-21.8,54.4-21.8,76.2,0l272.2,272.2c21.8,21.8,21.8,54.4,0,76.2C962.8,549,951.9,554.4,935.6,554.4z"/><path d="M935.6,554.4H64.4C31.8,554.4,10,532.7,10,500s21.8-54.4,54.4-54.4h871.1c32.7,0,54.4,21.8,54.4,54.4S968.2,554.4,935.6,554.4z"/></g>
</svg>