<svg version="1.1" xmlns="http://www.w3.org/2000/svg" xmlns:xlink="http://www.w3.org/1999/xlink" x="0px" y="0px" viewBox="0 0 1000 1000" enable-background="new 0 0 1000 1000" xml:space="preserve">
<metadata> Svg Vector Icons : http://www.onlinewebfonts.com/icon </metadata>
<g><path d="M570.7,163.8c0,17.6-14.3,30.6-31.9,30.6h-390c-41.9,0-77.6,32.4-77.6,74.3v568.8c0,41.9,35.6,90.5,77.6,90.5h570.7c42,0,86.7-48.7,86.7-90.5V512.3c0-17.6,13-31.8,30.6-31.8c17.6,0,30.6,14.2,30.6,31.8v325.1c0,83.6-64,151.7-148,151.7H148.8C64.9,989,10,921,10,837.4V268.6c0-83.6,54.9-135.4,138.8-135.4h390C556.4,133.2,570.7,146.2,570.7,163.8L570.7,163.8z M916.6,38.5L963.3,85c35.6,35.4,35.6,97.7,0,133.1l-103.6,88L409.9,775.1h-11l-1.9,0.4l-200.3,59L158,791.1l66.8-189.2l-0.5-2.4v-9.3l470.4-448.4l84.5-103.3C816.1,1.8,879.8,1.8,916.6,38.5L916.6,38.5z M240.8,751.1l87.9-27.5l-55.2-55L240.8,751.1L240.8,751.1z M306.3,612.6l81.3,81l417.8-419.2l-78.7-78.4L306.3,612.6L306.3,612.6z M827.6,82.8L765,145.3l91.2,91l62.6-62.5c5.9-5.9,9.1-13.8,9.1-22.2c0-8.4-3.2-16.3-9.1-22.2l-46.7-46.5C859.8,70.6,839.9,70.6,827.6,82.8L827.6,82.8z"/></g>
</svg>