<?xml version="1.0" standalone="no"?>
<svg version="1.0" xmlns="http://www.w3.org/2000/svg" viewBox="0 0 200.000000 200.000000"
 preserveAspectRatio="xMidYMid meet">

<g transform="translate(0.000000,200.000000) scale(0.100000,-0.100000)"
fill="#000000" stroke="none">
<path d="M983 1668 c-6 -7 -52 -100 -103 -205 -51 -106 -97 -193 -102 -193 -5
0 -153 39 -329 86 -176 47 -327 83 -335 80 -11 -4 7 -38 76 -141 l90 -135 710
0 709 0 101 132 c67 88 97 135 90 142 -7 7 -118 -19 -340 -78 -182 -49 -333
-86 -337 -83 -3 4 -47 95 -98 204 -52 112 -99 199 -107 201 -8 2 -19 -3 -25
-10z m116 -223 c51 -110 96 -203 99 -207 4 -3 148 32 321 78 173 46 315 83
317 82 1 -2 -30 -47 -69 -100 l-72 -97 -702 -1 -703 0 -65 97 c-35 53 -63 98
-61 100 2 2 143 -34 315 -80 236 -64 313 -81 321 -72 5 7 53 101 105 210 53
109 97 196 99 194 2 -2 45 -94 95 -204z"/>
<path d="M300 1083 c0 -87 97 -198 231 -265 95 -47 261 -102 378 -125 88 -16
95 -16 179 1 362 75 602 227 602 384 l0 42 -695 0 -695 0 0 -37z m1320 -15 c0
-39 -41 -107 -93 -154 -86 -77 -244 -146 -447 -194 l-86 -20 -99 24 c-310 75
-493 193 -521 334 l-6 32 626 0 626 0 0 -22z"/>
<path d="M947 653 l-28 -4 3 -87 3 -87 75 0 75 0 3 86 3 86 -38 7 c-39 6 -49
6 -96 -1z"/>
<path d="M824 416 c-96 -22 -164 -64 -164 -100 0 -3 151 -6 336 -6 311 0 335
1 332 17 -4 23 -61 60 -122 79 -71 22 -301 28 -382 10z"/>
</g>
</svg>
